<svg width="24" height="23" viewBox="0 0 24 23" fill="none" xmlns="http://www.w3.org/2000/svg">
<g id="Star 2">
<path id="Vector" d="M16.1643 3.27559C14.8535 -0.758531 9.14631 -0.758531 7.83555 3.27559C7.45017 4.46167 6.34488 5.26471 5.09776 5.26471C0.856037 5.26471 -0.907588 10.6926 2.52404 13.1858C3.53298 13.9188 3.95516 15.2182 3.56978 16.4043C2.25902 20.4384 6.87624 23.793 10.3079 21.2998C11.3168 20.5667 12.683 20.5667 13.692 21.2998C17.1236 23.793 21.7408 20.4384 20.4301 16.4043C20.0447 15.2182 20.4669 13.9188 21.4758 13.1858C24.9074 10.6926 23.1438 5.26471 18.9021 5.26471C17.655 5.26471 16.5497 4.46167 16.1643 3.27559Z" fill="#4D0F27"/>
</g>
</svg>
