<svg width="127" height="103" viewBox="0 0 127 103" fill="none" xmlns="http://www.w3.org/2000/svg">
<g id="Group 18">
<path id="Vector" d="M9.46538 68.4267C9.96304 70.0097 10.4408 71.6764 10.9053 73.4059C11.1309 74.2566 11.3432 75.1074 11.5688 75.9373C11.8674 77.1873 12.4442 78.3449 13.2517 79.3148C14.0592 80.2847 15.0744 81.0392 16.2136 81.5162C25.6791 85.4282 35.634 87.8781 45.768 88.7897C55.8141 89.6753 75.893 91.1677 96.5293 79.2498C102.621 75.7187 108.238 71.3496 113.231 66.2579C114.99 64.4546 116.041 62.0233 116.177 59.4447L116.953 45.3301C101.468 56.651 83.9501 64.5385 65.4691 68.5118C46.988 72.4851 27.9306 72.4609 9.45874 68.4407L9.46538 68.4267Z" fill="#4C1328"/>
<path id="Vector_2" d="M0.454445 63.6917C3.10863 70.8048 19.465 77.604 39.033 79.9123C46.8496 80.8328 57.7716 82.0044 71.7989 78.9639C80.995 76.9407 89.8472 73.4682 98.0555 68.6639C103.284 65.6094 128.426 50.93 125.984 37.3872C125.716 35.3367 124.778 33.4481 123.33 32.0454C114.286 23.9421 95.8724 51.2019 64.991 53.8031C48.9995 55.149 28.5689 49.9885 12.0599 53.3359C8.90803 53.9705 1.17107 55.6302 0.116034 60.2467C-0.116264 61.404 0.00207656 62.6087 0.454445 63.6917Z" fill="#901941"/>
<path id="Vector_3" d="M115.752 38.6076C114.679 35.4925 113.246 32.5275 111.486 29.779C105.301 20.1345 96.788 16.041 91.5062 13.5863C83.3132 9.83012 74.4119 8.09127 65.4819 8.50249C66.0794 7.66538 66.4283 6.66151 66.4851 5.61678C66.5418 4.57206 66.3038 3.53297 65.8009 2.62984C65.298 1.72671 64.5525 0.999747 63.6581 0.540099C62.7636 0.0804519 61.7599 -0.0914173 60.7728 0.046064C59.7857 0.183545 58.8593 0.62425 58.1096 1.3129C57.3599 2.00156 56.8204 2.90752 56.5587 3.91716C56.2969 4.92679 56.3247 5.99514 56.6384 6.98827C56.9522 7.98139 57.5379 8.85506 58.3222 9.49971C53.5435 10.6673 48.932 12.4915 44.6067 14.9252C23.287 26.9547 15.6894 50.4279 13.2674 60.2537C13.048 61.1499 13.1318 62.0985 13.5047 62.9369C13.8775 63.7753 14.5161 64.4514 15.3112 64.8493C31.7704 73.039 50.2966 75.459 68.1626 71.7532C93.4902 66.3835 108.964 50.3163 114.923 43.1614C115.434 42.5485 115.78 41.8034 115.926 41.0029C116.072 40.2024 116.012 39.3756 115.752 38.6076Z" fill="#E25D3E"/>
<path id="Vector_4" d="M18.687 95.5656C21.1685 91.7921 21.6601 87.6289 19.785 86.2669C17.9098 84.9048 14.378 86.8597 11.8964 90.6332C9.41489 94.4067 8.9233 98.5698 10.7984 99.9319C12.6736 101.294 16.2054 99.3391 18.687 95.5656Z" fill="#4C1328"/>
<path id="Vector_5" d="M110.08 89.3115C113.261 83.5341 113.512 77.4357 110.641 75.6903C107.77 73.9449 102.865 77.2135 99.6846 82.9909C96.5044 88.7683 96.2535 94.8667 99.1242 96.6121C101.995 98.3575 106.9 95.0889 110.08 89.3115Z" fill="#4C1328"/>
<path id="Vector_6" d="M92.3688 84.6823C72.2773 92.7412 50.5873 95.3926 29.2722 92.3951C44.8678 96.4928 61.1093 97.0963 76.9413 94.1664C72.7411 95.2125 69.5959 96.3492 64.3671 96.914C56.6835 97.6206 48.9549 97.5949 41.2757 96.8373C57.418 100.703 74.229 100.206 90.1393 95.3938C89.9211 93.739 89.9547 92.0583 90.2388 90.4146C90.5873 88.3764 91.3108 86.4293 92.3688 84.6823Z" fill="#4C1328"/>
<g id="Vector_7" style="mix-blend-mode:multiply" opacity="0.17">
<path d="M17.6933 53.852C17.8162 53.4285 18.0808 53.066 18.4381 52.8314C18.7954 52.5968 19.2215 52.5061 19.6375 52.5758C34.8133 54.8865 50.2472 54.5614 65.3227 51.6135C81.0059 48.5459 96.0652 42.6474 109.833 34.1794C110.053 34.0436 110.298 33.9591 110.551 33.9317C110.804 33.9043 111.06 33.9347 111.302 34.0208C111.543 34.1068 111.764 34.2465 111.949 34.4303C112.134 34.6142 112.279 34.8378 112.375 35.086L114.1 39.8002C114.213 40.105 114.242 40.4374 114.182 40.7585C114.122 41.0796 113.976 41.3761 113.762 41.6133C108.055 47.9802 90.7299 65.3236 62.6685 69.5078C47.0929 71.7609 31.2273 69.6113 16.7046 63.2803C16.3255 63.1182 16.0158 62.8161 15.8337 62.4309C15.6516 62.0456 15.6097 61.6037 15.716 61.1883L17.6933 53.852Z" fill="#4C1328"/>
</g>
<g id="Vector_8" style="mix-blend-mode:screen" opacity="0.39">
<path d="M77.7708 13.2098C86.8116 14.3794 95.2789 18.4876 101.99 24.9603C106.387 29.2847 109.865 34.5367 112.196 40.372L104.545 47.9105C103.688 41.6974 101.567 35.7512 98.3275 30.4765C93.3741 22.5916 86.1807 16.5494 77.7708 13.2098Z" fill="#FDFEFF"/>
</g>
</g>
</svg>
